<?xml version="1.0" encoding="UTF-8"?>
<svg version="1.1" xmlns="http://www.w3.org/2000/svg" width="960" height="540">
<path d="M0 0 C316.8 0 633.6 0 960 0 C960 178.2 960 356.4 960 540 C643.2 540 326.4 540 0 540 C0 361.8 0 183.6 0 0 Z " fill="#00488C" transform="translate(0,0)"/>
<path d="M0 0 C316.8 0 633.6 0 960 0 C960 62.04 960 124.08 960 188 C872 188 872 188 850 177 C846.17212566 175.15141678 842.34481621 173.31157195 838.5 171.5 C830.8708418 167.87936034 823.29444368 164.16880016 815.75 160.375 C813.93884522 159.47387163 812.12764782 158.5728289 810.31640625 157.671875 C806.75571382 155.89641716 803.22944283 154.06798762 799.71484375 152.203125 C798.0393977 151.34309668 796.36363095 150.48369273 794.6875 149.625 C793.94145508 149.2129834 793.19541016 148.8009668 792.42675781 148.37646484 C789.48602482 146.89946611 787.2153052 145.76403933 783.90071106 146.40759277 C783.18815659 146.66947388 782.47560211 146.93135498 781.74145508 147.20117188 C780.95394363 147.48852203 780.16643219 147.77587219 779.35505676 148.07192993 C775.82225072 149.46412208 772.33966961 150.93850902 768.875 152.4921875 C768.11117508 152.83027939 767.34735016 153.16837128 766.56037903 153.51670837 C764.90628423 154.24898944 763.25292989 154.98294495 761.60025024 155.71841431 C757.05439059 157.74040286 752.50194914 159.74744565 747.94921875 161.75390625 C746.98731125 162.17796249 746.02540375 162.60201874 745.03434753 163.03892517 C733.66136428 168.04328116 722.23797057 172.92946954 710.8125 177.8125 C706.64317347 179.59492182 702.47389739 181.37746161 698.3046875 183.16015625 C697.31333298 183.58397583 696.32197845 184.00779541 695.30058289 184.44445801 C687.3341951 187.85221456 679.38263319 191.29304187 671.4375 194.75 C659.46321514 199.95658498 647.4546015 205.08066432 635.4375 210.1875 C634.55085663 210.56442993 633.66421326 210.94135986 632.7507019 211.32971191 C630.22865082 212.40154908 627.70621736 213.47247984 625.18359375 214.54296875 C624.42981445 214.8631749 623.67603516 215.18338104 622.89941406 215.51329041 C621.52408779 216.09626942 620.1477673 216.6769113 618.77023315 217.25465393 C617.2964205 217.87519392 615.82909934 218.51112378 614.36352539 219.15087891 C611.57741468 220.15181817 608.92993545 220.61276913 606 221.04296875 C604.75492676 221.22601563 603.50985352 221.4090625 602.22705078 221.59765625 C600.81821158 221.79554028 599.40918508 221.99209427 598 222.1875 C597.25651306 222.29126953 596.51302612 222.39503906 595.74700928 222.50195312 C589.5022694 223.36760875 583.25185435 224.18755557 577 225 C575.96540649 225.13553284 574.93081299 225.27106567 573.86486816 225.41070557 C541.54017437 229.62979699 509.24946626 232.72650409 476.72426605 234.83175659 C474.99251447 234.94384815 473.2608094 235.05666057 471.52915192 235.17019653 C466.57969901 235.49468739 461.62982675 235.80994986 456.67883301 236.11006165 C455.16688448 236.20221221 453.65505783 236.29638839 452.14337158 236.39274597 C450.06094394 236.52424226 447.9781758 236.64630407 445.89501953 236.765625 C444.72665558 236.83555664 443.55829163 236.90548828 442.35452271 236.97753906 C436.60590313 237.0160302 431.61434717 236.06262681 426.26196289 234.00976562 C425.17875259 233.59843384 424.0955423 233.18710205 422.97950745 232.76330566 C421.82224655 232.31547729 420.66498566 231.86764893 419.47265625 231.40625 C417.60549412 230.69405806 415.73833198 229.98186615 413.87116909 229.26967621 C411.25628455 228.27009899 408.64403437 227.26372843 406.03167725 226.25756836 C402.81784295 225.02116408 399.60125663 223.79197248 396.38476562 222.5625 C395.11467254 222.07668665 393.84458179 221.59086716 392.57449341 221.1050415 C390.05320317 220.14084562 387.5315812 219.17752376 385.00973511 218.21478271 C379.01233776 215.92379192 373.02073783 213.62024601 367.04150391 211.28222656 C364.89624906 210.45354247 362.75090868 209.62507979 360.60546875 208.796875 C359.64165787 208.41406372 358.67784698 208.03125244 357.68482971 207.63684082 C349.55082502 204.51998487 343.63196796 204.30088808 335 206 C320.84200042 208.33639867 306.60925973 210.11111974 292.36083984 211.78979492 C288.97531594 212.19042099 285.59121826 212.60192343 282.20703125 213.01367188 C280.0130994 213.27410026 277.8190915 213.53388887 275.625 213.79296875 C274.13867065 213.97571602 274.13867065 213.97571602 272.62231445 214.16215515 C259.69431514 215.65628407 246.86712748 214.82753368 233.91796875 214.08203125 C232.63708091 214.00864816 232.63708091 214.00864816 231.33031654 213.93378258 C226.80366844 213.67331732 222.27735439 213.40767517 217.7512207 213.13842773 C214.0622596 212.91999283 210.3729466 212.71195173 206.68286133 212.51342773 C168.86852234 210.47229348 168.86852234 210.47229348 150.41401672 205.58470154 C145.84385089 204.47775685 141.20100915 203.75800297 136.5625 203 C135.50135986 202.82090088 134.44021973 202.64180176 133.34692383 202.45727539 C132.51700928 202.31797607 131.68709473 202.17867676 130.83203125 202.03515625 C124.77111807 200.98833637 118.76373676 199.72458342 112.75 198.4375 C102.53994738 196.26727097 92.33496647 194.45690231 82 193 C81.19498047 192.88446777 80.38996094 192.76893555 79.56054688 192.64990234 C69.66979781 191.24544672 59.75999741 190.06161604 49.82421875 189.02734375 C49.00912338 188.94247208 48.19402802 188.8576004 47.35423279 188.77015686 C43.30031394 188.3499449 39.24582578 187.93670195 35.19018555 187.53344727 C23.38214395 186.33379949 11.77809389 184.68258484 0 183 C0 122.61 0 62.22 0 0 Z " fill="#00172D" transform="translate(0,0)"/>
<path d="M0 0 C0.88123535 0.19142578 1.7624707 0.38285156 2.67041016 0.58007812 C5.72751709 1.26706845 8.76966592 2.00240011 11.8125 2.75 C13.47454468 3.1531543 13.47454468 3.1531543 15.17016602 3.56445312 C22.361143 5.31979224 29.51979543 7.17647894 36.66723633 9.10009766 C44.64904284 11.22213356 52.6987065 13.04484398 60.75561523 14.85742188 C63.84104911 15.55555957 66.92085048 16.27470033 70 17 C70.97195312 17.2170459 71.94390625 17.4340918 72.9453125 17.65771484 C79.29192104 19.19300841 83.84617375 21.40551748 89 25.375 C90.46625171 26.4560514 91.93374759 27.5354169 93.40234375 28.61328125 C94.15370605 29.17096191 94.90506836 29.72864258 95.67919922 30.30322266 C99.57507753 33.15156626 103.56961416 35.85269493 107.5625 38.5625 C109.17336398 39.66118437 110.78404304 40.7601399 112.39453125 41.859375 C113.1726416 42.38982422 113.95075195 42.92027344 114.75244141 43.46679688 C126.7356903 51.64133555 138.6501038 59.91458457 150.5546875 68.203125 C151.46637695 68.8329126 152.37806641 69.4627002 153.31738281 70.11157227 C155.08351015 71.35483718 156.82875809 72.62839289 158.54980469 73.93334961 C164.34723413 78.26436374 169.46209048 80.48693201 176.5 82.0625 C177.49136963 82.30307129 178.48273926 82.54364258 179.50415039 82.79150391 C182.66436543 83.55149624 185.83069619 84.27893118 189 85 C191.05089192 85.47478262 193.10167366 85.95004144 195.15234375 86.42578125 C198.31034583 87.1558238 201.46902001 87.88214425 204.63012695 88.59863281 C210.94409419 90.03534953 217.23642236 91.5404622 223.515625 93.12109375 C224.23698135 93.30267029 224.95833771 93.48424683 225.70155334 93.67132568 C229.24531514 94.56536023 232.78736019 95.46577867 236.32788086 96.37255859 C237.62873619 96.70282823 238.92959849 97.03307042 240.23046875 97.36328125 C241.36895264 97.65501221 242.50743652 97.94674316 243.68041992 98.24731445 C250.09502489 100.1384818 250.09502489 100.1384818 256.25146484 98.74853516 C256.93934082 98.06065918 257.6272168 97.3727832 258.3359375 96.6640625 C259.61355957 95.41544434 259.61355957 95.41544434 260.91699219 94.14160156 C261.39744995 93.65195923 261.87790771 93.16231689 262.3729248 92.65783691 C264.21418771 90.78176283 266.08105304 88.93325487 267.95019531 87.08496094 C272.53283805 82.5390694 277.08053612 77.95901371 281.625 73.375 C284.71837061 70.25483039 287.81518315 67.13813497 290.9140625 64.0234375 C291.60698395 63.32221771 292.2999054 62.62099792 293.01382446 61.89852905 C296.25253781 58.64379673 299.52636406 55.5012212 303.01147461 52.51049805 C307.24873295 48.85621473 311.06341025 44.87340927 314.90234375 40.80859375 C316.38322502 39.2713009 317.86569402 37.7355362 319.34960938 36.20117188 C321.65934692 33.81101411 323.9592346 31.41434677 326.23413086 28.9909668 C328.45240992 26.63346619 330.70415865 24.31286494 332.96484375 21.99609375 C333.97308449 20.89798622 333.97308449 20.89798622 335.00169373 19.7776947 C339.67253158 15.07788004 339.67253158 15.07788004 343.05000305 14.87973022 C345.47818625 15.37469071 347.67628182 16.13819674 350 17 C352.0077822 17.60057217 354.01745678 18.1948392 356.02856445 18.78417969 C358.30794425 19.49308688 360.58612502 20.20585742 362.86328125 20.921875 C364.74008978 21.50679948 366.61689862 22.09172296 368.49372387 22.67659378 C371.10945136 23.49273611 373.72412089 24.31223983 376.33880615 25.13171387 C379.58006953 26.1470832 382.82225602 27.15949195 386.06445312 28.171875 C387.01384671 28.46860233 387.01384671 28.46860233 387.98241997 28.77132416 C391.12944375 29.75439387 394.27781948 30.73280455 397.42800903 31.70568848 C402.97297103 33.41899219 408.50226629 35.15442059 413.99755859 37.02148438 C415.35460152 37.46805389 415.35460152 37.46805389 416.73905945 37.92364502 C418.36972326 38.46124684 419.99410326 39.01857421 421.60920715 39.60125732 C427.56129907 41.52399289 431.36235959 40.46338265 437 38 C437.69562546 37.71430145 438.39125092 37.42860291 439.10795593 37.13424683 C441.26922967 36.23132983 443.40837024 35.28755932 445.546875 34.33203125 C446.34446228 33.97958847 447.14204956 33.62714569 447.96380615 33.26402283 C449.67360005 32.5082215 451.38266888 31.75077807 453.09106445 30.99182129 C455.78907918 29.79516716 458.49064667 28.60690047 461.19335938 27.42089844 C469.48925233 23.77761696 477.77437312 20.11482694 486.02032471 16.35966492 C489.37567484 14.8355035 492.7393597 13.33036152 496.10461426 11.82821655 C497.68973285 11.11471932 499.2708221 10.39219561 500.84753418 9.66030884 C503.04500151 8.64110463 505.25437597 7.65368481 507.46875 6.671875 C508.10149841 6.36869858 508.73424683 6.06552216 509.38616943 5.75315857 C514.87179793 3.38478485 518.55223908 4.32066589 524 6 C525.43014938 6.41913666 525.43014938 6.41913666 526.88919067 6.84674072 C530.22360133 7.84241906 533.54363386 8.87806173 536.86328125 9.921875 C538.74008978 10.50679948 540.61689862 11.09172296 542.49372387 11.67659378 C545.10945136 12.49273611 547.72412089 13.31223983 550.33880615 14.13171387 C552.93852845 14.94611183 555.53881676 15.75868929 558.13929939 16.57065582 C559.41963388 16.97050007 560.69985079 17.37072105 561.97994804 17.77132416 C565.13956124 18.75932178 568.3016161 19.73813771 571.46755981 20.70568848 C576.82552914 22.34743198 582.13445629 24.00607687 587.36474609 26.02148438 C600.52259449 30.92995787 611.6852063 29.71333603 625.40454102 27.5512085 C631.46573185 26.62198641 637.55427275 25.91811419 643.640625 25.17578125 C646.07314415 24.86833097 648.50543742 24.55908819 650.9375 24.24804688 C652.73960937 24.01782837 652.73960937 24.01782837 654.578125 23.78295898 C657.06194782 23.46471919 659.54566919 23.14568678 662.02929688 22.82592773 C665.69093251 22.3554104 669.35321757 21.89024715 673.015625 21.42578125 C674.11972717 21.28207596 675.22382935 21.13837067 676.36138916 20.99031067 C685.35942751 19.85444226 692.12052834 19.64241812 700.61328125 22.9375 C701.44487259 23.24956894 702.27646393 23.56163788 703.133255 23.88316345 C705.86397961 24.91109066 708.58815903 25.95528437 711.3125 27 C713.21171799 27.71912874 715.11130047 28.43729553 717.01123047 29.15454102 C720.97932842 30.65502942 724.94457476 32.16273573 728.90771484 33.67626953 C733.98287316 35.61413135 739.0630176 37.53846282 744.14537048 39.45736694 C748.97331242 41.28038768 753.79927642 43.10861671 758.625 44.9375 C760.0120665 45.46259155 760.0120665 45.46259155 761.42715454 45.99829102 C764.02810111 46.98416625 766.62756769 47.97383655 769.2265625 48.96484375 C770.00365067 49.2589061 770.78073883 49.55296844 771.58137512 49.85594177 C776.88511328 51.88511328 776.88511328 51.88511328 778 53 C778 99.53 778 146.06 778 194 C461.2 194 144.4 194 -182 194 C-182 132.95 -182 71.9 -182 9 C-167.08759702 14.73553961 -167.08759702 14.73553961 -160.91015625 17.53125 C-160.21029602 17.84435623 -159.51043579 18.15746246 -158.78936768 18.48005676 C-157.30725523 19.14333899 -155.82576397 19.80801093 -154.34487915 20.47402954 C-150.40548665 22.24485729 -146.46026794 24.00262561 -142.515625 25.76171875 C-141.7196138 26.11695114 -140.9236026 26.47218353 -140.10346985 26.83818054 C-132.82766026 30.08274141 -125.53895064 33.29694035 -118.23410034 36.47558594 C-116.97021788 37.02604432 -115.7069539 37.57792535 -114.44436646 38.13134766 C-111.61673116 39.37020189 -108.78368885 40.58824819 -105.93164062 41.77001953 C-104.12045359 42.52990963 -102.32668709 43.33516922 -100.56835938 44.21044922 C-97.13878415 45.74829019 -95.08890215 46.33214257 -91.42993164 45.21606445 C-88.45955073 43.80140901 -85.68770483 42.20665763 -82.875 40.5 C-81.29912109 39.59556152 -81.29912109 39.59556152 -79.69140625 38.67285156 C-77.50666981 37.41630105 -75.3292574 36.1469345 -73.15917969 34.86523438 C-68.47387547 32.09894966 -63.73701785 29.42639388 -59 26.75 C-58.0910498 26.23187744 -57.18209961 25.71375488 -56.24560547 25.17993164 C-46.21744252 19.48866345 -36.02340388 14.11182052 -25.82421875 8.73535156 C-24.82612183 8.20872673 -24.82612183 8.20872673 -23.80786133 7.67146301 C-21.9950637 6.71564846 -20.18116417 5.76192462 -18.3671875 4.80834961 C-16.60951185 3.86438909 -14.85453072 2.91215625 -13.14665222 1.88082886 C-8.30547861 -1.04197921 -5.38895871 -1.26689837 0 0 Z " fill="#0051A1" transform="translate(182,346)"/>
<path d="M0 0 C1.63150219 0.80250967 3.2630984 1.60482823 4.89477539 2.40698242 C5.75491241 2.83079193 6.61504944 3.25460144 7.50125122 3.69125366 C10.26616093 5.04047906 13.04399546 6.35936315 15.82592773 7.6730957 C24.80470803 11.94575272 33.38286408 16.29006334 41.62109375 21.87109375 C76.78845064 44.6776914 121.75995864 38.22421813 161.88671875 37.1328125 C161.88671875 58.5828125 161.88671875 80.0328125 161.88671875 102.1328125 C151.07793021 106.45632792 140.48596015 110.69025203 129.52636719 114.47607422 C125.00054148 116.06721397 120.53126134 117.79384078 116.06011963 119.53189087 C111.80439194 121.18523677 107.53907014 122.81308284 103.2734375 124.44067383 C101.08417662 125.28278548 98.89896087 126.13548362 96.71777344 126.99829102 C93.51636696 128.2614391 90.30172504 129.48357197 87.08203125 130.69921875 C86.12032013 131.08960831 85.15860901 131.47999786 84.16775513 131.88221741 C76.7882154 134.60361393 72.14620293 133.87154438 64.88671875 131.1328125 C63.39437714 130.61371056 63.39437714 130.61371056 61.87188721 130.0841217 C58.5813574 128.92575865 55.31399192 127.71495752 52.046875 126.4921875 C50.20832015 125.81121103 48.36976462 125.13023641 46.53117275 124.44935989 C43.97776127 123.50244938 41.4259561 122.5512512 38.87414551 121.60003662 C29.65094009 118.16348748 20.41962065 114.74917175 11.18121338 111.35369873 C8.13054767 110.22317154 5.09071872 109.06758918 2.05224609 107.90478516 C-7.07741236 104.46582613 -14.72767435 102.08268255 -24.61328125 103.0078125 C-25.76127197 103.08008057 -26.9092627 103.15234863 -28.09204102 103.22680664 C-30.79296024 103.39843696 -33.48955584 103.58539693 -36.18798828 103.78857422 C-42.13615096 104.22191489 -48.09112082 104.51676355 -54.046875 104.82421875 C-58.71497125 105.07055368 -63.38291825 105.31959784 -68.05078125 105.5703125 C-69.18515625 105.63112 -70.31953125 105.69192749 -71.48828125 105.75457764 C-91.78802156 106.86361835 -110.07540607 109.74762333 -129.67779541 115.18695068 C-165.48823041 125.04631983 -201.48529099 132.86499779 -238.09082031 139.10253906 C-264.79511656 143.40585736 -264.79511656 143.40585736 -290.17578125 152.3828125 C-292.54324592 153.45937427 -294.91159792 154.53375236 -297.28125 155.60546875 C-297.90231628 155.88739578 -298.52338257 156.16932281 -299.16326904 156.45979309 C-308.54309356 160.70556744 -318.02558407 164.71960618 -327.50585938 168.73486328 C-328.97538974 169.35809358 -330.44479281 169.98162414 -331.9140625 170.60546875 C-332.62450714 170.90710938 -333.33495178 171.20875 -334.06692505 171.51953125 C-338.30413825 173.32915961 -342.49105655 175.21986825 -346.65625 177.19140625 C-347.60709473 177.63202393 -348.55793945 178.0726416 -349.53759766 178.52661133 C-351.22013732 179.31182765 -352.89200225 180.12063983 -354.54833984 180.9597168 C-358.61981524 182.83463256 -361.2084403 183.43089814 -365.5246582 182.02416992 C-366.40409592 181.73783691 -367.28353363 181.45150391 -368.18962097 181.15649414 C-373.78377874 179.19777252 -379.33130919 177.12663927 -384.87109375 175.01953125 C-386.18599158 174.52222347 -387.50100672 174.02522574 -388.81613159 173.52851868 C-392.26008856 172.22687396 -395.70251129 170.92122011 -399.14459229 169.61462402 C-401.91537067 168.56343579 -404.68702258 167.51456488 -407.4588356 166.46610832 C-408.8219226 165.95041964 -410.18488704 165.43440689 -411.54772568 164.91806221 C-414.86680464 163.66080874 -418.18741441 162.40797855 -421.51177979 161.1647644 C-431.94194268 157.25523628 -431.94194268 157.25523628 -436.94042969 155.02978516 C-446.4870234 150.83623732 -454.09012789 150.77463653 -464.23760986 151.84881592 C-468.65056261 152.28463188 -473.07242009 152.56106031 -477.49667358 152.85610962 C-481.27006937 153.10785008 -485.042284 153.37311375 -488.81445312 153.64257812 C-490.08603271 153.73321533 -491.3576123 153.82385254 -492.66772461 153.91723633 C-495.26902536 154.1035225 -497.87026202 154.29070556 -500.47143555 154.47875977 C-504.28799161 154.75391517 -508.10489351 155.02378813 -511.921875 155.29296875 C-513.06901474 155.37732681 -514.21615448 155.46168488 -515.39805603 155.54859924 C-518.63551412 155.77500726 -521.87240028 155.96301828 -525.11328125 156.1328125 C-526.05371277 156.19493927 -526.99414429 156.25706604 -527.96307373 156.32107544 C-537.39409062 156.67764922 -546.16009834 154.42974856 -555.26171875 152.2421875 C-557.02506988 151.82629055 -558.7884734 151.41061568 -560.55192566 150.99514771 C-566.20465228 149.65371669 -571.84705544 148.27169519 -577.48828125 146.8828125 C-578.92827044 146.53016201 -578.92827044 146.53016201 -580.39735031 146.17038727 C-609.28747169 139.0848372 -636.24544826 130.88777976 -662.9765625 117.63525391 C-671.46087355 113.45585825 -680.14194097 109.70705391 -688.81686401 105.94415283 C-691.54484637 104.75250785 -694.25937957 103.53419806 -696.97290039 102.31005859 C-708.06320989 97.38501279 -719.00035181 94.09630548 -730.87033081 91.60800171 C-733.79874687 90.98759045 -736.70555326 90.28862679 -739.61328125 89.578125 C-740.98105713 89.25001831 -740.98105713 89.25001831 -742.37646484 88.9152832 C-746.47539883 87.93058836 -750.57418548 86.94528201 -754.67285156 85.95947266 C-758.36870988 85.07143858 -762.06521867 84.18613991 -765.76171875 83.30078125 C-767.06122231 82.98887115 -768.36070158 82.67685982 -769.66015625 82.36474609 C-772.14162276 81.76875101 -774.62337647 81.17394997 -777.10546875 80.58056641 C-778.8225 80.16750244 -778.8225 80.16750244 -780.57421875 79.74609375 C-781.57243652 79.50673096 -782.5706543 79.26736816 -783.59912109 79.02075195 C-788.45512957 77.79376134 -793.28114107 76.45066891 -798.11328125 75.1328125 C-798.11328125 60.9428125 -798.11328125 46.7528125 -798.11328125 32.1328125 C-746.4664865 37.05155486 -746.4664865 37.05155486 -721.71728516 40.3218689 C-720.18277988 40.5245638 -718.64795998 40.72489518 -717.11279297 40.92251587 C-707.34484092 42.18772907 -697.81716713 43.99361252 -688.22021484 46.20507812 C-683.11193207 47.37691039 -677.9716299 48.28482417 -672.80078125 49.1328125 C-670.84873637 49.4635363 -668.896918 49.79559943 -666.9453125 50.12890625 C-665.49632568 50.37616455 -665.49632568 50.37616455 -664.01806641 50.62841797 C-659.33343208 51.44187019 -654.65991923 52.31060051 -649.98828125 53.1953125 C-648.7830481 53.42057617 -648.7830481 53.42057617 -647.5534668 53.65039062 C-644.15205401 54.29927338 -640.77852019 54.95741789 -637.42863464 55.84063721 C-627.83212239 58.32696977 -618.39709313 58.96672312 -608.546875 59.51953125 C-606.77811064 59.62648835 -605.00939891 59.73431894 -603.24073792 59.8429718 C-599.55579187 60.06712606 -595.87052572 60.28416859 -592.18481445 60.49536133 C-587.49209316 60.76434878 -582.80025091 61.04605899 -578.10856533 61.33249187 C-573.58827588 61.60779942 -569.06758541 61.8762421 -564.546875 62.14453125 C-563.70164213 62.1953504 -562.85640926 62.24616955 -561.98556328 62.29852867 C-547.31730888 63.17344297 -533.33814232 63.26269628 -518.70703125 61.453125 C-517.25083802 61.27801364 -515.79457833 61.10345421 -514.33825684 60.92941284 C-511.30552709 60.56551531 -508.27340884 60.19700624 -505.24169922 59.82470703 C-501.39001484 59.351802 -497.53735902 58.88748779 -493.68425751 58.4262867 C-490.68279578 58.06657803 -487.68170956 57.70381601 -484.68074036 57.34002304 C-483.26169081 57.16806083 -481.84257447 56.99664877 -480.42338562 56.82584 C-473.78274328 56.02398512 -467.17580321 55.17424669 -460.58789062 54.01123047 C-451.99697497 52.57445483 -446.25653342 53.44987114 -438.23046875 56.578125 C-437.27563095 56.94028107 -436.32079315 57.30243713 -435.33702087 57.67556763 C-433.28553722 58.45515273 -431.23596126 59.23977305 -429.18814087 60.02893066 C-425.95158963 61.27190364 -422.70703529 62.49151559 -419.4597168 63.70605469 C-409.54446188 67.42980427 -399.70580906 71.23751216 -390.015625 75.515625 C-370.40782531 84.05607904 -355.15603924 86.56539743 -333.9282074 84.01016235 C-327.3381717 83.2214854 -320.75726914 82.73262104 -314.1328125 82.3359375 C-288.12405815 80.73910468 -262.28946537 78.18417176 -236.42578125 75.0703125 C-235.70701561 74.9840435 -234.98824997 74.89777451 -234.24770355 74.8088913 C-225.62512569 73.77264882 -217.0106935 72.68867449 -208.40087891 71.55029297 C-205.54477575 71.18760647 -202.69035813 70.87364632 -199.82617188 70.58398438 C-185.85357894 69.02320011 -173.73882586 63.4325048 -160.98828125 57.7578125 C-158.61139215 56.71956237 -156.23352439 55.68355013 -153.85473633 54.6496582 C-148.98124096 52.52878579 -144.11270459 50.39724438 -139.24755859 48.25732422 C-132.56028958 45.32106675 -125.85210604 42.43632488 -119.1328125 39.57421875 C-118.10081223 39.13454269 -117.06881195 38.69486664 -116.00553894 38.24186707 C-113.95235605 37.36732633 -111.89912878 36.49288978 -109.84585571 35.61856079 C-94.49077778 29.07202017 -79.17608418 22.43548804 -63.89752197 15.71243286 C-61.34633015 14.5903462 -58.79416516 13.47050326 -56.24169922 12.35131836 C-49.35532793 9.32996825 -42.47243996 6.30354472 -35.61973572 3.20643616 C-32.99733415 2.02434709 -30.36865977 0.8567277 -27.73843384 -0.30783081 C-25.98826018 -1.08929041 -24.24721254 -1.89109097 -22.5065918 -2.69360352 C-20.96032104 -3.37507446 -20.96032104 -3.37507446 -19.3828125 -4.0703125 C-18.50214111 -4.46895508 -17.62146973 -4.86759766 -16.71411133 -5.27832031 C-10.94603449 -6.58429997 -5.09079126 -2.51789122 0 0 Z " fill="#01376D" transform="translate(798.11328125,150.8671875)"/>
<path d="M0 0 C15.87623478 9.07213416 15.87623478 9.07213416 22.75 13.5 C31.43766559 19.04010379 40.2014756 24.44966571 48.98608398 29.83447266 C54.615865 33.28945929 60.23227502 36.76317375 65.8203125 40.28515625 C66.91126221 40.97182373 68.00221191 41.65849121 69.1262207 42.3659668 C71.20249745 43.67511409 73.27666472 44.98761483 75.34838867 46.30395508 C76.28142822 46.89200928 77.21446777 47.48006348 78.17578125 48.0859375 C78.98958252 48.6020459 79.80338379 49.1181543 80.6418457 49.64990234 C85.60816004 52.6024661 85.60816004 52.6024661 91.24719238 52.24913025 C93.0903302 51.5456118 93.0903302 51.5456118 94.97070312 50.82788086 C95.65280853 50.57285797 96.33491394 50.31783508 97.03768921 50.05508423 C99.29196579 49.20766861 101.53624483 48.3364934 103.78125 47.46484375 C105.35666081 46.86714492 106.93263951 46.27094098 108.50915527 45.67616272 C112.66594163 44.10327893 116.81465677 42.51009196 120.96203613 40.91259766 C125.13928643 39.30767844 129.32383865 37.72205406 133.5078125 36.13476562 C138.96218747 34.06302752 144.41474674 31.98672247 149.86192513 29.89612675 C151.2654418 29.35752183 152.66932653 28.81987488 154.07360649 28.28326321 C157.30149193 27.04776675 160.52054498 25.79614501 163.72451782 24.49978638 C164.86359589 24.04425385 166.00267395 23.58872131 167.17626953 23.11938477 C168.16096222 22.71800797 169.14565491 22.31663116 170.16018677 21.90309143 C175.23694231 20.28862807 180.12048885 20.61879886 185.375 21 C186.54474365 21.06251953 187.7144873 21.12503906 188.91967773 21.18945312 C192.95006757 21.42016196 196.97411521 21.70260497 201 22 C201.77535095 22.05623535 202.5507019 22.1124707 203.34954834 22.17041016 C210.8627564 22.71596453 218.37479157 23.27532162 225.88232422 23.89453125 C226.66347595 23.95858658 227.44462769 24.02264191 228.24945068 24.08863831 C229.80995927 24.21663911 231.37038528 24.34565082 232.9307251 24.47569275 C237.8118822 24.86889105 242.68418537 25.12192804 247.57725525 25.30992126 C255.13224626 25.61510914 261.883951 26.17169795 269 28.9375 C270.29115723 29.4015625 270.29115723 29.4015625 271.60839844 29.875 C274.41559387 30.89144989 277.207324 31.94438376 280 33 C281.96282105 33.72201414 283.92638574 34.44200933 285.890625 35.16015625 C286.8650354 35.51905441 287.8394458 35.87795258 288.84338379 36.24772644 C291.04366966 37.05655246 293.24574578 37.86053241 295.44995117 38.65861511 C301.53093223 40.88449481 307.5299272 43.19914446 313.46424484 45.79321766 C340.2897414 57.45294764 363.80786328 59.99872737 392.84383392 59.31361008 C398.23031832 59.20504967 403.61696794 59.18785931 409.00439453 59.16821289 C411.17129546 59.15957476 413.3381961 59.15086226 415.50509644 59.14207458 C417.10376871 59.13581967 417.10376871 59.13581967 418.7347374 59.1294384 C421.92109077 59.11340315 425.1072247 59.08763383 428.29348755 59.05897522 C445.20577455 58.91720042 461.9932753 59.40545303 478.875 60.4375 C479.94878906 60.50030151 481.02257812 60.56310303 482.12890625 60.62780762 C489.08947687 61.03752519 496.04511413 61.50362388 503 62 C504.10896637 62.07913635 505.21793274 62.15827271 506.36050415 62.23980713 C511.10090378 62.57907026 515.84122634 62.91937511 520.58140564 63.26170349 C532.02890335 64.0843666 543.48184153 64.8018843 554.9375 65.5 C578.28767184 66.92777065 578.28767184 66.92777065 588.32421875 67.671875 C589.00981369 67.72214844 589.69540863 67.77242188 590.40177917 67.82421875 C593.46912452 68.04988848 596.53555373 68.282985 599.60131836 68.52929688 C600.64296143 68.60728516 601.68460449 68.68527344 602.7578125 68.765625 C603.6358252 68.83555664 604.51383789 68.90548828 605.41845703 68.97753906 C610.68793263 69.02338659 614.98889147 67.76918566 619.77734375 65.65625 C621.47769775 64.91242065 621.47769775 64.91242065 623.21240234 64.15356445 C624.45411354 63.60240328 625.69581236 63.05121423 626.9375 62.5 C628.24920058 61.92401423 629.56122104 61.34875645 630.87353516 60.77416992 C633.72072411 59.52646185 636.56626093 58.2750861 639.41064453 57.02099609 C653.917213 50.62794649 668.45414785 44.30308907 683 38 C684.15725586 37.49839355 685.31451172 36.99678711 686.50683594 36.47998047 C708.97327192 26.7929777 732.00730767 18.28558123 755.16821289 10.4074707 C759.34800645 8.97550019 763.45710967 7.43331081 767.55078125 5.76953125 C768.49131348 5.39223877 769.4318457 5.01494629 770.40087891 4.6262207 C772.19532775 3.90098919 773.98345643 3.1598135 775.76318359 2.39916992 C786.00521024 -1.72257185 794.81917695 1.53849066 805.15139771 4.20803833 C808.01816501 4.94837774 810.8884418 5.67465153 813.75856018 6.40187073 C815.193165 6.76550183 816.62760454 7.12978564 818.06187439 7.49473572 C823.55261948 8.89149186 829.05054473 10.25208307 834.5625 11.5625 C835.3572876 11.75166992 836.1520752 11.94083984 836.97094727 12.13574219 C842.1518006 13.35691793 847.34338507 14.52736116 852.5390625 15.68359375 C853.20870529 15.83308975 853.87834808 15.98258575 854.56828308 16.13661194 C857.86592451 16.87275649 861.16432652 17.60431447 864.46508789 18.32641602 C870.99181261 19.7768467 877.43088077 21.36711072 883.859375 23.203125 C892.50199259 25.66246031 901.21403845 27.81993729 909.94140625 29.953125 C910.65216497 30.12700745 911.3629237 30.30088989 912.09522057 30.4800415 C918.01197974 31.92675261 923.93028259 33.36710609 929.84899902 34.80578613 C934.30484442 35.88897376 938.76000206 36.9749016 943.21418571 38.06490326 C945.28816386 38.5712301 947.36311764 39.07341358 949.43812561 39.57550049 C951.30288795 40.03167755 951.30288795 40.03167755 953.20532227 40.49707031 C954.30352798 40.76400696 955.4017337 41.0309436 956.53321838 41.30596924 C959 42 959 42 960 43 C960.09268999 44.35094982 960.11747326 45.70667091 960.11352539 47.06079102 C960.11344986 47.92160782 960.11337433 48.78242462 960.11329651 49.66932678 C960.10813522 50.60473801 960.10297394 51.54014923 960.09765625 52.50390625 C960.0962413 53.45692123 960.09482635 54.40993622 960.09336853 55.39183044 C960.08775152 58.44875165 960.07519616 61.50560077 960.0625 64.5625 C960.05748719 66.62955624 960.05292391 68.69661362 960.04882812 70.76367188 C960.03777656 75.84247588 960.02050055 80.9212257 960 86 C948.90673553 86.25718272 937.81420312 86.45146962 926.7185421 86.56993389 C921.56371637 86.62685166 916.41095946 86.70377548 911.25732422 86.82983398 C868.4797614 87.848655 868.4797614 87.848655 851.92218018 76.30484009 C849.28519838 74.51476879 846.49538208 73.21186503 843.59375 71.90625 C842.74006836 71.50196777 841.88638672 71.09768555 841.00683594 70.68115234 C839.76595215 70.09648193 839.76595215 70.09648193 838.5 69.5 C830.8708418 65.87936034 823.29444368 62.16880016 815.75 58.375 C813.93884522 57.47387163 812.12764782 56.5728289 810.31640625 55.671875 C806.75571382 53.89641716 803.22944283 52.06798762 799.71484375 50.203125 C798.0393977 49.34309668 796.36363095 48.48369273 794.6875 47.625 C793.94145508 47.2129834 793.19541016 46.8009668 792.42675781 46.37646484 C789.48602482 44.89946611 787.2153052 43.76403933 783.90071106 44.40759277 C783.18815659 44.66947388 782.47560211 44.93135498 781.74145508 45.20117188 C780.95394363 45.48852203 780.16643219 45.77587219 779.35505676 46.07192993 C775.82225072 47.46412208 772.33966961 48.93850902 768.875 50.4921875 C767.72926262 50.99932533 767.72926262 50.99932533 766.56037903 51.51670837 C764.90628423 52.24898944 763.25292989 52.98294495 761.60025024 53.71841431 C757.05439059 55.74040286 752.50194914 57.74744565 747.94921875 59.75390625 C746.98731125 60.17796249 746.02540375 60.60201874 745.03434753 61.03892517 C733.66136428 66.04328116 722.23797057 70.92946954 710.8125 75.8125 C706.64317347 77.59492182 702.47389739 79.37746161 698.3046875 81.16015625 C697.31333298 81.58397583 696.32197845 82.00779541 695.30058289 82.44445801 C687.3341951 85.85221456 679.38263319 89.29304187 671.4375 92.75 C659.46321514 97.95658498 647.4546015 103.08066432 635.4375 108.1875 C634.55085663 108.56442993 633.66421326 108.94135986 632.7507019 109.32971191 C630.22865082 110.40154908 627.70621736 111.47247984 625.18359375 112.54296875 C624.42981445 112.8631749 623.67603516 113.18338104 622.89941406 113.51329041 C621.52408779 114.09626942 620.1477673 114.6769113 618.77023315 115.25465393 C617.2964205 115.87519392 615.82909934 116.51112378 614.36352539 117.15087891 C611.57741468 118.15181817 608.92993545 118.61276913 606 119.04296875 C604.75492676 119.22601563 603.50985352 119.4090625 602.22705078 119.59765625 C600.81821158 119.79554028 599.40918508 119.99209427 598 120.1875 C597.25651306 120.29126953 596.51302612 120.39503906 595.74700928 120.50195312 C589.5022694 121.36760875 583.25185435 122.18755557 577 123 C575.96540649 123.13553284 574.93081299 123.27106567 573.86486816 123.41070557 C541.54017437 127.62979699 509.24946626 130.72650409 476.72426605 132.83175659 C474.99251447 132.94384815 473.2608094 133.05666057 471.52915192 133.17019653 C466.57969901 133.49468739 461.62982675 133.80994986 456.67883301 134.11006165 C455.16688448 134.20221221 453.65505783 134.29638839 452.14337158 134.39274597 C450.06094394 134.52424226 447.9781758 134.64630407 445.89501953 134.765625 C444.72665558 134.83555664 443.55829163 134.90548828 442.35452271 134.97753906 C436.60590313 135.0160302 431.61434717 134.06262681 426.26196289 132.00976562 C425.17875259 131.59843384 424.0955423 131.18710205 422.97950745 130.76330566 C421.82224655 130.31547729 420.66498566 129.86764893 419.47265625 129.40625 C417.60549412 128.69405806 415.73833198 127.98186615 413.87116909 127.26967621 C411.25628455 126.27009899 408.64403437 125.26372843 406.03167725 124.25756836 C402.81784295 123.02116408 399.60125663 121.79197248 396.38476562 120.5625 C395.11467254 120.07668665 393.84458179 119.59086716 392.57449341 119.1050415 C390.05320317 118.14084562 387.5315812 117.17752376 385.00973511 116.21478271 C379.01233776 113.92379192 373.02073783 111.62024601 367.04150391 109.28222656 C364.89624906 108.45354247 362.75090868 107.62507979 360.60546875 106.796875 C359.64165787 106.41406372 358.67784698 106.03125244 357.68482971 105.63684082 C349.55082502 102.51998487 343.63196796 102.30088808 335 104 C320.84200042 106.33639867 306.60925973 108.11111974 292.36083984 109.78979492 C288.97531594 110.19042099 285.59121826 110.60192343 282.20703125 111.01367188 C280.0130994 111.27410026 277.8190915 111.53388887 275.625 111.79296875 C274.63411377 111.91480026 273.64322754 112.03663177 272.62231445 112.16215515 C259.69431514 113.65628407 246.86712748 112.82753368 233.91796875 112.08203125 C232.63708091 112.00864816 232.63708091 112.00864816 231.33031654 111.93378258 C226.80366844 111.67331732 222.27735439 111.40767517 217.7512207 111.13842773 C214.0622596 110.91999283 210.3729466 110.71195173 206.68286133 110.51342773 C168.86852234 108.47229348 168.86852234 108.47229348 150.41401672 103.58470154 C145.84385089 102.47775685 141.20100915 101.75800297 136.5625 101 C135.50135986 100.82090088 134.44021973 100.64180176 133.34692383 100.45727539 C132.51700928 100.31797607 131.68709473 100.17867676 130.83203125 100.03515625 C124.77111807 98.98833637 118.76373676 97.72458342 112.75 96.4375 C102.53994738 94.26727097 92.33496647 92.45690231 82 91 C81.19498047 90.88446777 80.38996094 90.76893555 79.56054688 90.64990234 C69.66979781 89.24544672 59.75999741 88.06161604 49.82421875 87.02734375 C49.00912338 86.94247208 48.19402802 86.8576004 47.35423279 86.77015686 C43.30031394 86.3499449 39.24582578 85.93670195 35.19018555 85.53344727 C23.38214395 84.33379949 11.77809389 82.68258484 0 81 C0 54.27 0 27.54 0 0 Z " fill="#00254C" transform="translate(0,102)"/>
</svg>
